<svg xmlns="http://www.w3.org/2000/svg" viewBox="0 0 128 128">
  <rect width="128" height="128" rx="24" fill="#fff9e8"/>
  <g stroke="#2f4a57" stroke-width="5" stroke-linecap="round" stroke-linejoin="round">
    <path fill="#f6a816" d="M33 35c17 0 29-13 48-19 13-4 28 1 36 15-20-2-34 2-48 14-15 13-25 16-46 9 3-7 5-13 10-19Z"/>
    <path fill="#f6a816" d="M42 88c15 1 27-5 38-16 10-10 22-13 35-10-6 18-21 28-39 28-14 0-24 2-34-2Z"/>
    <path fill="#ff7b24" d="M22 48 7 35c-4-4-1-11 5-10l24 6c8 2 13 9 12 17-1 9-9 15-18 13L12 56c-6-2-7-10-2-14l12-10"/>
    <path fill="#33a7dc" d="M21 60c15-21 46-32 77-27 13 2 23 13 26 24-9 14-25 24-45 27-28 4-51-4-58-24Z"/>
    <path fill="#1b7cb2" d="M21 60c15 9 37 11 62 7 15-2 28-8 39-15 1 2 2 4 2 5-9 14-25 24-45 27-28 4-51-4-58-24Z"/>
    <path fill="#ff6f21" d="M66 32c-7 13-8 34 1 51 10 0 20-2 29-6-9-13-10-30-2-44-9-2-19-2-28-1Z"/>
    <path fill="#f6a816" d="M58 62c12 0 23 5 31 14-9 8-25 10-36 2 4-4 6-9 5-16Z"/>
    <path fill="#ff6f21" d="M88 82c-3 13-9 21-20 28 3-11 7-19 10-27"/>
    <path fill="#ff6f21" d="M103 73c-2 11-7 20-16 28 1-10 4-18 8-25"/>
    <path fill="#63c2e8" d="M57 39c18-6 39-7 56 1-26 2-48 9-71 20-6 3-13 3-21 0 8-9 20-16 36-21Z" opacity=".75"/>
    <path fill="#33a7dc" d="M101 44c10 3 17 10 23 20-8 0-13-1-18-5-3-3-4-9-5-15Z"/>
    <path fill="none" d="M19 43c10 3 19 6 28 11M17 55c10 1 20 3 30 5M79 23l10 14M65 28l6 15M49 34l9 13M52 88l13-16M68 90l8-13M72 68c9 2 17 5 25 9"/>
    <path fill="#fff9e8" d="M105 43c-5 0-9 4-9 9s4 9 9 9 9-4 9-9-4-9-9-9Z"/>
    <path fill="#2f4a57" d="M103 47c-2 0-4 2-4 5s2 5 5 5 5-2 5-5c0 2-2 3-4 3-3 0-5-2-5-5 0-1 1-2 3-3Z" stroke-width="3"/>
    <path fill="none" d="M113 63c3 0 6 1 9 3-2 4-5 6-9 7M100 65c0 6 1 11 5 15"/>
  </g>
</svg>